<?xml version="1.0" encoding="utf-8"?>
<!-- Generator: Adobe Illustrator 15.0.2, SVG Export Plug-In . SVG Version: 6.00 Build 0)  -->
<!DOCTYPE svg PUBLIC "-//W3C//DTD SVG 1.1//EN" "http://www.w3.org/Graphics/SVG/1.1/DTD/svg11.dtd">
<svg version="1.1" id="Livello_1" xmlns="http://www.w3.org/2000/svg" xmlns:xlink="http://www.w3.org/1999/xlink" x="0px" y="0px"
	 width="100px" height="100px" viewBox="253.222 358.809 100 100" enable-background="new 253.222 358.809 100 100"
	 xml:space="preserve">
<g>
	<path fill="#FFFFFF" d="M303.223,458.809c13.355,0,25.911-5.201,35.355-14.645c9.443-9.444,14.644-22,14.644-35.355
		c0-13.355-5.2-25.912-14.644-35.355c-9.444-9.444-22-14.645-35.355-14.645s-25.912,5.201-35.356,14.645
		c-9.444,9.444-14.645,22-14.645,35.356c0,13.355,5.201,25.911,14.645,35.354C277.312,453.608,289.868,458.809,303.223,458.809z
		 M258.26,408.81c0-24.792,20.17-44.963,44.963-44.963c12.01,0,23.301,4.677,31.793,13.169c8.492,8.493,13.169,19.784,13.169,31.794
		c0,24.792-20.17,44.961-44.962,44.961C278.431,453.771,258.26,433.601,258.26,408.81z"/>
</g>
<g>
	<g>
		<path fill="#FFFFFF" d="M285.78,378.413l-10.095-0.008c-1.129-0.001-1.98,0.947-1.98,1.977l-0.021,24.941
			c-0.001,1.129,1.324,1.783,1.978,1.784l11.776,0.008c6.057,0.007,7.152-9.336,7.333-10.88l0.005-6.136
			C294.639,384.992,293.01,378.419,285.78,378.413z M284.573,401.272c-1.228-0.042-1.94-0.08-3.167-0.002l0.012-16.525l2.771,0.002
			c2.374,0.001,3.166,2.991,3.162,6.93l-0.002,2.177C287.35,393.853,287.541,401.373,284.573,401.272z"/>
		<path fill="#FFFFFF" d="M298.879,378.423l13.063,0.009c1.879,0.102,1.68,1.33,1.677,3.565c-0.002,1.703-0.138,2.554-1.482,2.574
			c-1.446,0.019-3.188,0.075-7.72-0.008l-0.004,4.553c1.841,0.061,2.903,0.001,4.75,0.003c1.186,0,1.583,0.675,1.583,1.586
			l-0.002,3.167c-0.002,0.871-0.911,1.385-1.784,1.385l-4.553-0.005l-0.005,5.838c1.98,0.041,2.667,0.002,7.617,0.005
			c1.089,0.001,1.879,0.297,1.681,2.477c0,1.86,0.455,3.563-1.583,3.563l-13.262-0.011c-1.069,0-2.177-1.068-2.176-1.981
			l0.021-23.16C296.541,379.47,297.254,378.423,298.879,378.423z"/>
		<path fill="#FFFFFF" d="M318.122,378.437l13.065,0.011c1.877,0.1,1.677,1.328,1.676,3.565c0,1.703-0.137,2.553-1.484,2.573
			c-1.444,0.017-3.187,0.076-7.72-0.006l-0.003,4.55c1.841,0.062,2.902,0.004,4.751,0.004c1.185,0.002,1.582,0.676,1.582,1.586
			l-0.002,3.167c0,0.872-0.912,1.385-1.782,1.384l-4.554-0.003l-0.005,5.837c1.979,0.041,2.667,0.003,7.617,0.006
			c1.091,0.001,1.877,0.296,1.68,2.476c-0.001,1.861,0.457,3.565-1.582,3.564l-13.264-0.011c-1.067-0.001-2.176-1.07-2.174-1.982
			l0.02-23.159C315.786,379.485,316.499,378.436,318.122,378.437z"/>
		<path fill="#FFFFFF" d="M284.229,410.997l4.34,0.005c1.678,0,1.676,1.974,1.576,3.551l-0.019,22.685
			c-0.001,0.555-0.553,2.168-1.778,2.168l-12.822-0.01c-0.651-0.001-1.774-0.75-1.773-1.974l0.004-6.707
			c0.001-1.066,1.027-2.169,2.37-2.169l2.367,0.003c0.986,0,2.17,0.553,2.168,1.776l-0.002,1.974c0,0.453,0.059,0.985,0.987,0.986
			c0.768,0,0.986-0.333,0.986-0.986l0.014-16.372C282.649,414.033,282.276,410.996,284.229,410.997z"/>
		<path fill="#FFFFFF" d="M312.069,424.235c-2.971-10.103-3.126-13.219-5.316-13.22l-6.705-0.005c-2.131,0-2.079,2.07-2.765,4.338
			l-5.74,22.679c0.099,0.751-0.079,0.532,0.591,1.382l5.913,0.004c1.419,0.001,1.479-1.282,2.27-4.043
			c0.298-1.48,0.793-3.056,0.793-3.056l5.325,0.002c0,0,0.339,2.264,0.786,4.047c0.441,1.768,0.698,3.06,1.878,3.06l5.918,0.004
			c0.671,0.001,0.986-0.413,0.986-1.182C316.004,436.787,315.669,436.449,312.069,424.235z M302.199,426.1
			c0.593-2.364,0.897-5.128,1.392-6.508c0.354,1.48,1.369,6.51,1.369,6.51L302.199,426.1z"/>
		<path fill="#FFFFFF" d="M312.315,411.019l6.113,0.007c1.401,0,1.571,1.972,2.168,2.959c0,0,1.272,3.451,1.666,3.945
			c0.021-0.148,0.773-2.116,1.482-3.844c0.605-1.478,0.98-3.055,1.978-3.055l6.516,0.004c0.828,0.001,0.848,0.297,0.985,0.988
			l-7.313,15.182l-0.008,10.455c0,0.652-0.748,1.774-1.974,1.772l-3.747-0.001c-0.889-0.001-1.974-1.165-1.972-2.369l0.009-9.864
			l-7.194-15.095C311.125,411.116,311.604,411.018,312.315,411.019z"/>
	</g>
	<path fill="#FFFFFF" d="M328.501,437.202c0-1.107,0.839-1.939,1.912-1.939c1.059,0,1.89,0.832,1.89,1.939
		c0,1.125-0.831,1.95-1.89,1.95C329.34,439.152,328.501,438.327,328.501,437.202z M330.413,439.539c1.273,0,2.356-0.983,2.356-2.337
		c0-1.342-1.083-2.325-2.356-2.325c-1.288,0-2.379,0.983-2.379,2.325C328.034,438.555,329.125,439.539,330.413,439.539z
		 M329.918,437.387h0.47l0.713,1.168h0.456l-0.767-1.186c0.396-0.049,0.7-0.26,0.7-0.744c0-0.531-0.315-0.767-0.953-0.767h-1.028
		v2.696h0.409V437.387L329.918,437.387z M329.918,437.042v-0.838h0.557c0.285,0,0.587,0.063,0.587,0.398
		c0,0.416-0.309,0.439-0.655,0.439H329.918z"/>
</g>
</svg>
